<mxfile host="app.diagrams.net" agent="Mozilla/5.0 (Windows NT 10.0; Win64; x64) AppleWebKit/537.36 (KHTML, like Gecko) Chrome/131.0.0.0 Safari/537.36 Edg/131.0.0.0" version="25.0.3">
  <diagram id="C5RBs43oDa-KdzZeNtuy" name="Page-1">
    <mxGraphModel dx="1699" dy="477" grid="1" gridSize="10" guides="1" tooltips="1" connect="1" arrows="1" fold="1" page="1" pageScale="1" pageWidth="827" pageHeight="1169" math="0" shadow="0">
      <root>
        <mxCell id="WIyWlLk6GJQsqaUBKTNV-0" />
        <mxCell id="WIyWlLk6GJQsqaUBKTNV-1" parent="WIyWlLk6GJQsqaUBKTNV-0" />
        <mxCell id="mvioNwK95yMqdUQ73LqQ-36" value="" style="swimlane;fontFamily=Sarabun;fontSource=https%3A%2F%2Ffonts.googleapis.com%2Fcss%3Ffamily%3DSarabun;" parent="WIyWlLk6GJQsqaUBKTNV-1" vertex="1">
          <mxGeometry x="-710" y="30" width="660" height="3500" as="geometry" />
        </mxCell>
        <mxCell id="mvioNwK95yMqdUQ73LqQ-35" value="&lt;font data-font-src=&quot;https://fonts.googleapis.com/css?family=Sarabun&quot; face=&quot;Sarabun&quot;&gt;Start&lt;/font&gt;" style="ellipse;whiteSpace=wrap;html=1;" parent="mvioNwK95yMqdUQ73LqQ-36" vertex="1">
          <mxGeometry x="255" y="40" width="130" height="30" as="geometry" />
        </mxCell>
        <mxCell id="QNhVIbcrn-Icenjs99R--4" style="edgeStyle=orthogonalEdgeStyle;rounded=0;orthogonalLoop=1;jettySize=auto;html=1;entryX=0.473;entryY=0.019;entryDx=0;entryDy=0;entryPerimeter=0;" parent="mvioNwK95yMqdUQ73LqQ-36" source="mvioNwK95yMqdUQ73LqQ-35" edge="1">
          <mxGeometry relative="1" as="geometry">
            <mxPoint x="320.3299999999999" y="111.71000000000004" as="targetPoint" />
          </mxGeometry>
        </mxCell>
        <mxCell id="nfO1gDs8qfdZO7nGTnkP-2" style="edgeStyle=orthogonalEdgeStyle;rounded=0;orthogonalLoop=1;jettySize=auto;html=1;" edge="1" parent="mvioNwK95yMqdUQ73LqQ-36" source="nfO1gDs8qfdZO7nGTnkP-0">
          <mxGeometry relative="1" as="geometry">
            <mxPoint x="320" y="250" as="targetPoint" />
          </mxGeometry>
        </mxCell>
        <mxCell id="nfO1gDs8qfdZO7nGTnkP-0" value="Display &quot;Array element&quot;" style="shape=parallelogram;perimeter=parallelogramPerimeter;whiteSpace=wrap;html=1;fixedSize=1;" vertex="1" parent="mvioNwK95yMqdUQ73LqQ-36">
          <mxGeometry x="240" y="110" width="160" height="80" as="geometry" />
        </mxCell>
        <mxCell id="nfO1gDs8qfdZO7nGTnkP-3" style="edgeStyle=orthogonalEdgeStyle;rounded=0;orthogonalLoop=1;jettySize=auto;html=1;" edge="1" parent="mvioNwK95yMqdUQ73LqQ-36" source="nfO1gDs8qfdZO7nGTnkP-1">
          <mxGeometry relative="1" as="geometry">
            <mxPoint x="320" y="370" as="targetPoint" />
          </mxGeometry>
        </mxCell>
        <mxCell id="nfO1gDs8qfdZO7nGTnkP-1" value="Read row, col&lt;div&gt;is size of Matrix&lt;/div&gt;" style="rounded=0;whiteSpace=wrap;html=1;" vertex="1" parent="mvioNwK95yMqdUQ73LqQ-36">
          <mxGeometry x="260" y="250" width="120" height="60" as="geometry" />
        </mxCell>
        <mxCell id="nfO1gDs8qfdZO7nGTnkP-6" style="edgeStyle=orthogonalEdgeStyle;rounded=0;orthogonalLoop=1;jettySize=auto;html=1;" edge="1" parent="mvioNwK95yMqdUQ73LqQ-36" source="nfO1gDs8qfdZO7nGTnkP-5">
          <mxGeometry relative="1" as="geometry">
            <mxPoint x="320" y="490" as="targetPoint" />
          </mxGeometry>
        </mxCell>
        <mxCell id="nfO1gDs8qfdZO7nGTnkP-5" value="i = 0&lt;div&gt;for loop row&lt;/div&gt;" style="rounded=0;whiteSpace=wrap;html=1;" vertex="1" parent="mvioNwK95yMqdUQ73LqQ-36">
          <mxGeometry x="260" y="370" width="120" height="60" as="geometry" />
        </mxCell>
        <mxCell id="nfO1gDs8qfdZO7nGTnkP-8" style="edgeStyle=orthogonalEdgeStyle;rounded=0;orthogonalLoop=1;jettySize=auto;html=1;" edge="1" parent="mvioNwK95yMqdUQ73LqQ-36" source="nfO1gDs8qfdZO7nGTnkP-7">
          <mxGeometry relative="1" as="geometry">
            <mxPoint x="320" y="630" as="targetPoint" />
          </mxGeometry>
        </mxCell>
        <mxCell id="nfO1gDs8qfdZO7nGTnkP-26" style="edgeStyle=orthogonalEdgeStyle;rounded=0;orthogonalLoop=1;jettySize=auto;html=1;" edge="1" parent="mvioNwK95yMqdUQ73LqQ-36" source="nfO1gDs8qfdZO7nGTnkP-7">
          <mxGeometry relative="1" as="geometry">
            <mxPoint x="310" y="1330" as="targetPoint" />
            <Array as="points">
              <mxPoint x="580" y="530" />
              <mxPoint x="580" y="1293" />
            </Array>
          </mxGeometry>
        </mxCell>
        <mxCell id="nfO1gDs8qfdZO7nGTnkP-7" value="i &amp;lt; row ?&amp;nbsp;" style="rhombus;whiteSpace=wrap;html=1;" vertex="1" parent="mvioNwK95yMqdUQ73LqQ-36">
          <mxGeometry x="280" y="490" width="80" height="80" as="geometry" />
        </mxCell>
        <mxCell id="nfO1gDs8qfdZO7nGTnkP-10" style="edgeStyle=orthogonalEdgeStyle;rounded=0;orthogonalLoop=1;jettySize=auto;html=1;" edge="1" parent="mvioNwK95yMqdUQ73LqQ-36" source="nfO1gDs8qfdZO7nGTnkP-9">
          <mxGeometry relative="1" as="geometry">
            <mxPoint x="320" y="740" as="targetPoint" />
          </mxGeometry>
        </mxCell>
        <mxCell id="nfO1gDs8qfdZO7nGTnkP-9" value="j = 0&lt;div&gt;for loop column&lt;/div&gt;" style="rounded=0;whiteSpace=wrap;html=1;" vertex="1" parent="mvioNwK95yMqdUQ73LqQ-36">
          <mxGeometry x="260" y="630" width="120" height="60" as="geometry" />
        </mxCell>
        <mxCell id="nfO1gDs8qfdZO7nGTnkP-17" style="edgeStyle=orthogonalEdgeStyle;rounded=0;orthogonalLoop=1;jettySize=auto;html=1;entryX=0.5;entryY=1;entryDx=0;entryDy=0;" edge="1" parent="mvioNwK95yMqdUQ73LqQ-36" source="nfO1gDs8qfdZO7nGTnkP-11" target="nfO1gDs8qfdZO7nGTnkP-16">
          <mxGeometry relative="1" as="geometry" />
        </mxCell>
        <mxCell id="nfO1gDs8qfdZO7nGTnkP-11" value="Store value each position of Matrix" style="rounded=0;whiteSpace=wrap;html=1;" vertex="1" parent="mvioNwK95yMqdUQ73LqQ-36">
          <mxGeometry x="260" y="970" width="120" height="60" as="geometry" />
        </mxCell>
        <mxCell id="nfO1gDs8qfdZO7nGTnkP-13" style="edgeStyle=orthogonalEdgeStyle;rounded=0;orthogonalLoop=1;jettySize=auto;html=1;entryX=0.5;entryY=0;entryDx=0;entryDy=0;" edge="1" parent="mvioNwK95yMqdUQ73LqQ-36" source="nfO1gDs8qfdZO7nGTnkP-12" target="nfO1gDs8qfdZO7nGTnkP-11">
          <mxGeometry relative="1" as="geometry" />
        </mxCell>
        <mxCell id="nfO1gDs8qfdZO7nGTnkP-29" style="edgeStyle=orthogonalEdgeStyle;rounded=0;orthogonalLoop=1;jettySize=auto;html=1;" edge="1" parent="mvioNwK95yMqdUQ73LqQ-36" source="nfO1gDs8qfdZO7nGTnkP-12" target="nfO1gDs8qfdZO7nGTnkP-28">
          <mxGeometry relative="1" as="geometry" />
        </mxCell>
        <mxCell id="nfO1gDs8qfdZO7nGTnkP-12" value="j &amp;lt; column?" style="rhombus;whiteSpace=wrap;html=1;" vertex="1" parent="mvioNwK95yMqdUQ73LqQ-36">
          <mxGeometry x="280" y="740" width="80" height="80" as="geometry" />
        </mxCell>
        <mxCell id="nfO1gDs8qfdZO7nGTnkP-14" value="Yes" style="text;html=1;align=center;verticalAlign=middle;resizable=0;points=[];autosize=1;strokeColor=none;fillColor=none;" vertex="1" parent="mvioNwK95yMqdUQ73LqQ-36">
          <mxGeometry x="320" y="810" width="40" height="30" as="geometry" />
        </mxCell>
        <mxCell id="nfO1gDs8qfdZO7nGTnkP-15" value="Yes" style="text;html=1;align=center;verticalAlign=middle;resizable=0;points=[];autosize=1;strokeColor=none;fillColor=none;" vertex="1" parent="mvioNwK95yMqdUQ73LqQ-36">
          <mxGeometry x="270" y="570" width="40" height="30" as="geometry" />
        </mxCell>
        <mxCell id="nfO1gDs8qfdZO7nGTnkP-31" style="edgeStyle=orthogonalEdgeStyle;rounded=0;orthogonalLoop=1;jettySize=auto;html=1;" edge="1" parent="mvioNwK95yMqdUQ73LqQ-36" source="nfO1gDs8qfdZO7nGTnkP-16">
          <mxGeometry relative="1" as="geometry">
            <mxPoint x="320" y="710" as="targetPoint" />
            <Array as="points">
              <mxPoint x="470" y="710" />
            </Array>
          </mxGeometry>
        </mxCell>
        <mxCell id="nfO1gDs8qfdZO7nGTnkP-16" value="j++" style="rounded=0;whiteSpace=wrap;html=1;" vertex="1" parent="mvioNwK95yMqdUQ73LqQ-36">
          <mxGeometry x="410" y="860" width="120" height="60" as="geometry" />
        </mxCell>
        <mxCell id="nfO1gDs8qfdZO7nGTnkP-25" value="No" style="text;html=1;align=center;verticalAlign=middle;resizable=0;points=[];autosize=1;strokeColor=none;fillColor=none;" vertex="1" parent="mvioNwK95yMqdUQ73LqQ-36">
          <mxGeometry x="250" y="740" width="40" height="30" as="geometry" />
        </mxCell>
        <mxCell id="nfO1gDs8qfdZO7nGTnkP-30" style="edgeStyle=orthogonalEdgeStyle;rounded=0;orthogonalLoop=1;jettySize=auto;html=1;entryX=0;entryY=0.5;entryDx=0;entryDy=0;" edge="1" parent="mvioNwK95yMqdUQ73LqQ-36" source="nfO1gDs8qfdZO7nGTnkP-28" target="nfO1gDs8qfdZO7nGTnkP-7">
          <mxGeometry relative="1" as="geometry">
            <Array as="points">
              <mxPoint x="130" y="530" />
            </Array>
          </mxGeometry>
        </mxCell>
        <mxCell id="nfO1gDs8qfdZO7nGTnkP-28" value="i++" style="rounded=0;whiteSpace=wrap;html=1;" vertex="1" parent="mvioNwK95yMqdUQ73LqQ-36">
          <mxGeometry x="70" y="640" width="120" height="60" as="geometry" />
        </mxCell>
        <mxCell id="nfO1gDs8qfdZO7nGTnkP-32" value="No" style="text;html=1;align=center;verticalAlign=middle;resizable=0;points=[];autosize=1;strokeColor=none;fillColor=none;" vertex="1" parent="mvioNwK95yMqdUQ73LqQ-36">
          <mxGeometry x="370" y="490" width="40" height="30" as="geometry" />
        </mxCell>
        <mxCell id="nfO1gDs8qfdZO7nGTnkP-52" style="edgeStyle=orthogonalEdgeStyle;rounded=0;orthogonalLoop=1;jettySize=auto;html=1;entryX=0.5;entryY=0;entryDx=0;entryDy=0;" edge="1" parent="mvioNwK95yMqdUQ73LqQ-36" source="nfO1gDs8qfdZO7nGTnkP-33" target="nfO1gDs8qfdZO7nGTnkP-36">
          <mxGeometry relative="1" as="geometry" />
        </mxCell>
        <mxCell id="nfO1gDs8qfdZO7nGTnkP-33" value="Assign for new Matrix size equal Matrix before" style="rounded=0;whiteSpace=wrap;html=1;" vertex="1" parent="mvioNwK95yMqdUQ73LqQ-36">
          <mxGeometry x="250" y="1330" width="120" height="60" as="geometry" />
        </mxCell>
        <mxCell id="nfO1gDs8qfdZO7nGTnkP-35" style="edgeStyle=orthogonalEdgeStyle;rounded=0;orthogonalLoop=1;jettySize=auto;html=1;" edge="1" parent="mvioNwK95yMqdUQ73LqQ-36" source="nfO1gDs8qfdZO7nGTnkP-36">
          <mxGeometry relative="1" as="geometry">
            <mxPoint x="310" y="1630" as="targetPoint" />
          </mxGeometry>
        </mxCell>
        <mxCell id="nfO1gDs8qfdZO7nGTnkP-53" style="edgeStyle=orthogonalEdgeStyle;rounded=0;orthogonalLoop=1;jettySize=auto;html=1;entryX=0.5;entryY=0;entryDx=0;entryDy=0;" edge="1" parent="mvioNwK95yMqdUQ73LqQ-36" source="nfO1gDs8qfdZO7nGTnkP-36" target="nfO1gDs8qfdZO7nGTnkP-73">
          <mxGeometry relative="1" as="geometry">
            <mxPoint x="310" y="2174.705882352941" as="targetPoint" />
            <Array as="points">
              <mxPoint x="560" y="1530" />
              <mxPoint x="560" y="2150" />
              <mxPoint x="310" y="2150" />
            </Array>
          </mxGeometry>
        </mxCell>
        <mxCell id="nfO1gDs8qfdZO7nGTnkP-36" value="i &amp;lt; row ?&amp;nbsp;" style="rhombus;whiteSpace=wrap;html=1;" vertex="1" parent="mvioNwK95yMqdUQ73LqQ-36">
          <mxGeometry x="270" y="1490" width="80" height="80" as="geometry" />
        </mxCell>
        <mxCell id="nfO1gDs8qfdZO7nGTnkP-37" style="edgeStyle=orthogonalEdgeStyle;rounded=0;orthogonalLoop=1;jettySize=auto;html=1;" edge="1" parent="mvioNwK95yMqdUQ73LqQ-36" source="nfO1gDs8qfdZO7nGTnkP-38">
          <mxGeometry relative="1" as="geometry">
            <mxPoint x="310" y="1740" as="targetPoint" />
          </mxGeometry>
        </mxCell>
        <mxCell id="nfO1gDs8qfdZO7nGTnkP-38" value="j = 0&lt;div&gt;for loop column&lt;/div&gt;" style="rounded=0;whiteSpace=wrap;html=1;" vertex="1" parent="mvioNwK95yMqdUQ73LqQ-36">
          <mxGeometry x="250" y="1630" width="120" height="60" as="geometry" />
        </mxCell>
        <mxCell id="nfO1gDs8qfdZO7nGTnkP-39" style="edgeStyle=orthogonalEdgeStyle;rounded=0;orthogonalLoop=1;jettySize=auto;html=1;entryX=0.5;entryY=1;entryDx=0;entryDy=0;" edge="1" parent="mvioNwK95yMqdUQ73LqQ-36" source="nfO1gDs8qfdZO7nGTnkP-40" target="nfO1gDs8qfdZO7nGTnkP-47">
          <mxGeometry relative="1" as="geometry" />
        </mxCell>
        <mxCell id="nfO1gDs8qfdZO7nGTnkP-40" value="Store value each position of new Matrix for transpose" style="rounded=0;whiteSpace=wrap;html=1;" vertex="1" parent="mvioNwK95yMqdUQ73LqQ-36">
          <mxGeometry x="250" y="1970" width="120" height="60" as="geometry" />
        </mxCell>
        <mxCell id="nfO1gDs8qfdZO7nGTnkP-41" style="edgeStyle=orthogonalEdgeStyle;rounded=0;orthogonalLoop=1;jettySize=auto;html=1;entryX=0.5;entryY=0;entryDx=0;entryDy=0;" edge="1" parent="mvioNwK95yMqdUQ73LqQ-36" source="nfO1gDs8qfdZO7nGTnkP-43" target="nfO1gDs8qfdZO7nGTnkP-40">
          <mxGeometry relative="1" as="geometry" />
        </mxCell>
        <mxCell id="nfO1gDs8qfdZO7nGTnkP-42" style="edgeStyle=orthogonalEdgeStyle;rounded=0;orthogonalLoop=1;jettySize=auto;html=1;" edge="1" parent="mvioNwK95yMqdUQ73LqQ-36" source="nfO1gDs8qfdZO7nGTnkP-43">
          <mxGeometry relative="1" as="geometry">
            <mxPoint x="120" y="1700" as="targetPoint" />
          </mxGeometry>
        </mxCell>
        <mxCell id="nfO1gDs8qfdZO7nGTnkP-43" value="j &amp;lt; column?" style="rhombus;whiteSpace=wrap;html=1;" vertex="1" parent="mvioNwK95yMqdUQ73LqQ-36">
          <mxGeometry x="270" y="1740" width="80" height="80" as="geometry" />
        </mxCell>
        <mxCell id="nfO1gDs8qfdZO7nGTnkP-44" value="Yes" style="text;html=1;align=center;verticalAlign=middle;resizable=0;points=[];autosize=1;strokeColor=none;fillColor=none;" vertex="1" parent="mvioNwK95yMqdUQ73LqQ-36">
          <mxGeometry x="310" y="1810" width="40" height="30" as="geometry" />
        </mxCell>
        <mxCell id="nfO1gDs8qfdZO7nGTnkP-45" value="Yes" style="text;html=1;align=center;verticalAlign=middle;resizable=0;points=[];autosize=1;strokeColor=none;fillColor=none;" vertex="1" parent="mvioNwK95yMqdUQ73LqQ-36">
          <mxGeometry x="260" y="1570" width="40" height="30" as="geometry" />
        </mxCell>
        <mxCell id="nfO1gDs8qfdZO7nGTnkP-46" style="edgeStyle=orthogonalEdgeStyle;rounded=0;orthogonalLoop=1;jettySize=auto;html=1;" edge="1" parent="mvioNwK95yMqdUQ73LqQ-36" source="nfO1gDs8qfdZO7nGTnkP-47">
          <mxGeometry relative="1" as="geometry">
            <mxPoint x="310" y="1710" as="targetPoint" />
            <Array as="points">
              <mxPoint x="460" y="1710" />
            </Array>
          </mxGeometry>
        </mxCell>
        <mxCell id="nfO1gDs8qfdZO7nGTnkP-47" value="j++" style="rounded=0;whiteSpace=wrap;html=1;" vertex="1" parent="mvioNwK95yMqdUQ73LqQ-36">
          <mxGeometry x="400" y="1860" width="120" height="60" as="geometry" />
        </mxCell>
        <mxCell id="nfO1gDs8qfdZO7nGTnkP-48" value="No" style="text;html=1;align=center;verticalAlign=middle;resizable=0;points=[];autosize=1;strokeColor=none;fillColor=none;" vertex="1" parent="mvioNwK95yMqdUQ73LqQ-36">
          <mxGeometry x="240" y="1740" width="40" height="30" as="geometry" />
        </mxCell>
        <mxCell id="nfO1gDs8qfdZO7nGTnkP-49" style="edgeStyle=orthogonalEdgeStyle;rounded=0;orthogonalLoop=1;jettySize=auto;html=1;entryX=0;entryY=0.5;entryDx=0;entryDy=0;" edge="1" parent="mvioNwK95yMqdUQ73LqQ-36" target="nfO1gDs8qfdZO7nGTnkP-36">
          <mxGeometry relative="1" as="geometry">
            <mxPoint x="120" y="1640" as="sourcePoint" />
            <Array as="points">
              <mxPoint x="120" y="1530" />
            </Array>
          </mxGeometry>
        </mxCell>
        <mxCell id="nfO1gDs8qfdZO7nGTnkP-50" value="No" style="text;html=1;align=center;verticalAlign=middle;resizable=0;points=[];autosize=1;strokeColor=none;fillColor=none;" vertex="1" parent="mvioNwK95yMqdUQ73LqQ-36">
          <mxGeometry x="360" y="1490" width="40" height="30" as="geometry" />
        </mxCell>
        <mxCell id="nfO1gDs8qfdZO7nGTnkP-51" value="i++" style="rounded=0;whiteSpace=wrap;html=1;" vertex="1" parent="mvioNwK95yMqdUQ73LqQ-36">
          <mxGeometry x="60" y="1640" width="120" height="60" as="geometry" />
        </mxCell>
        <mxCell id="nfO1gDs8qfdZO7nGTnkP-55" style="edgeStyle=orthogonalEdgeStyle;rounded=0;orthogonalLoop=1;jettySize=auto;html=1;" edge="1" parent="mvioNwK95yMqdUQ73LqQ-36" source="nfO1gDs8qfdZO7nGTnkP-57">
          <mxGeometry relative="1" as="geometry">
            <mxPoint x="310" y="2440" as="targetPoint" />
          </mxGeometry>
        </mxCell>
        <mxCell id="nfO1gDs8qfdZO7nGTnkP-57" value="i &amp;lt; row ?&amp;nbsp;" style="rhombus;whiteSpace=wrap;html=1;" vertex="1" parent="mvioNwK95yMqdUQ73LqQ-36">
          <mxGeometry x="270" y="2300" width="80" height="80" as="geometry" />
        </mxCell>
        <mxCell id="nfO1gDs8qfdZO7nGTnkP-58" style="edgeStyle=orthogonalEdgeStyle;rounded=0;orthogonalLoop=1;jettySize=auto;html=1;" edge="1" parent="mvioNwK95yMqdUQ73LqQ-36" source="nfO1gDs8qfdZO7nGTnkP-59">
          <mxGeometry relative="1" as="geometry">
            <mxPoint x="310" y="2550" as="targetPoint" />
          </mxGeometry>
        </mxCell>
        <mxCell id="nfO1gDs8qfdZO7nGTnkP-59" value="j = 0&lt;div&gt;for loop column&lt;/div&gt;" style="rounded=0;whiteSpace=wrap;html=1;" vertex="1" parent="mvioNwK95yMqdUQ73LqQ-36">
          <mxGeometry x="250" y="2440" width="120" height="60" as="geometry" />
        </mxCell>
        <mxCell id="nfO1gDs8qfdZO7nGTnkP-60" style="edgeStyle=orthogonalEdgeStyle;rounded=0;orthogonalLoop=1;jettySize=auto;html=1;entryX=0.5;entryY=1;entryDx=0;entryDy=0;exitX=1;exitY=0.5;exitDx=0;exitDy=0;" edge="1" parent="mvioNwK95yMqdUQ73LqQ-36" source="nfO1gDs8qfdZO7nGTnkP-75" target="nfO1gDs8qfdZO7nGTnkP-68">
          <mxGeometry relative="1" as="geometry">
            <mxPoint x="370" y="2810" as="sourcePoint" />
          </mxGeometry>
        </mxCell>
        <mxCell id="nfO1gDs8qfdZO7nGTnkP-62" style="edgeStyle=orthogonalEdgeStyle;rounded=0;orthogonalLoop=1;jettySize=auto;html=1;entryX=0.5;entryY=0;entryDx=0;entryDy=0;" edge="1" parent="mvioNwK95yMqdUQ73LqQ-36" source="nfO1gDs8qfdZO7nGTnkP-64">
          <mxGeometry relative="1" as="geometry">
            <mxPoint x="310" y="2780" as="targetPoint" />
          </mxGeometry>
        </mxCell>
        <mxCell id="nfO1gDs8qfdZO7nGTnkP-63" style="edgeStyle=orthogonalEdgeStyle;rounded=0;orthogonalLoop=1;jettySize=auto;html=1;" edge="1" parent="mvioNwK95yMqdUQ73LqQ-36" source="nfO1gDs8qfdZO7nGTnkP-64">
          <mxGeometry relative="1" as="geometry">
            <mxPoint x="120" y="2510" as="targetPoint" />
          </mxGeometry>
        </mxCell>
        <mxCell id="nfO1gDs8qfdZO7nGTnkP-64" value="j &amp;lt; column?" style="rhombus;whiteSpace=wrap;html=1;" vertex="1" parent="mvioNwK95yMqdUQ73LqQ-36">
          <mxGeometry x="270" y="2550" width="80" height="80" as="geometry" />
        </mxCell>
        <mxCell id="nfO1gDs8qfdZO7nGTnkP-65" value="Yes" style="text;html=1;align=center;verticalAlign=middle;resizable=0;points=[];autosize=1;strokeColor=none;fillColor=none;" vertex="1" parent="mvioNwK95yMqdUQ73LqQ-36">
          <mxGeometry x="310" y="2620" width="40" height="30" as="geometry" />
        </mxCell>
        <mxCell id="nfO1gDs8qfdZO7nGTnkP-66" value="Yes" style="text;html=1;align=center;verticalAlign=middle;resizable=0;points=[];autosize=1;strokeColor=none;fillColor=none;" vertex="1" parent="mvioNwK95yMqdUQ73LqQ-36">
          <mxGeometry x="260" y="2380" width="40" height="30" as="geometry" />
        </mxCell>
        <mxCell id="nfO1gDs8qfdZO7nGTnkP-67" style="edgeStyle=orthogonalEdgeStyle;rounded=0;orthogonalLoop=1;jettySize=auto;html=1;" edge="1" parent="mvioNwK95yMqdUQ73LqQ-36" source="nfO1gDs8qfdZO7nGTnkP-68">
          <mxGeometry relative="1" as="geometry">
            <mxPoint x="310" y="2520" as="targetPoint" />
            <Array as="points">
              <mxPoint x="460" y="2520" />
            </Array>
          </mxGeometry>
        </mxCell>
        <mxCell id="nfO1gDs8qfdZO7nGTnkP-68" value="j++" style="rounded=0;whiteSpace=wrap;html=1;" vertex="1" parent="mvioNwK95yMqdUQ73LqQ-36">
          <mxGeometry x="400" y="2670" width="120" height="60" as="geometry" />
        </mxCell>
        <mxCell id="nfO1gDs8qfdZO7nGTnkP-69" value="No" style="text;html=1;align=center;verticalAlign=middle;resizable=0;points=[];autosize=1;strokeColor=none;fillColor=none;" vertex="1" parent="mvioNwK95yMqdUQ73LqQ-36">
          <mxGeometry x="240" y="2550" width="40" height="30" as="geometry" />
        </mxCell>
        <mxCell id="nfO1gDs8qfdZO7nGTnkP-70" style="edgeStyle=orthogonalEdgeStyle;rounded=0;orthogonalLoop=1;jettySize=auto;html=1;entryX=0;entryY=0.5;entryDx=0;entryDy=0;" edge="1" parent="mvioNwK95yMqdUQ73LqQ-36" target="nfO1gDs8qfdZO7nGTnkP-57">
          <mxGeometry relative="1" as="geometry">
            <mxPoint x="120" y="2450" as="sourcePoint" />
            <Array as="points">
              <mxPoint x="120" y="2340" />
            </Array>
          </mxGeometry>
        </mxCell>
        <mxCell id="nfO1gDs8qfdZO7nGTnkP-71" value="No" style="text;html=1;align=center;verticalAlign=middle;resizable=0;points=[];autosize=1;strokeColor=none;fillColor=none;" vertex="1" parent="mvioNwK95yMqdUQ73LqQ-36">
          <mxGeometry x="360" y="2300" width="40" height="30" as="geometry" />
        </mxCell>
        <mxCell id="nfO1gDs8qfdZO7nGTnkP-72" value="i++" style="rounded=0;whiteSpace=wrap;html=1;" vertex="1" parent="mvioNwK95yMqdUQ73LqQ-36">
          <mxGeometry x="60" y="2450" width="120" height="60" as="geometry" />
        </mxCell>
        <mxCell id="nfO1gDs8qfdZO7nGTnkP-74" style="edgeStyle=orthogonalEdgeStyle;rounded=0;orthogonalLoop=1;jettySize=auto;html=1;entryX=0.5;entryY=0;entryDx=0;entryDy=0;" edge="1" parent="mvioNwK95yMqdUQ73LqQ-36" source="nfO1gDs8qfdZO7nGTnkP-73" target="nfO1gDs8qfdZO7nGTnkP-57">
          <mxGeometry relative="1" as="geometry" />
        </mxCell>
        <mxCell id="nfO1gDs8qfdZO7nGTnkP-73" value="Display &quot;Array Transpose" style="shape=parallelogram;perimeter=parallelogramPerimeter;whiteSpace=wrap;html=1;fixedSize=1;" vertex="1" parent="mvioNwK95yMqdUQ73LqQ-36">
          <mxGeometry x="250" y="2220" width="120" height="60" as="geometry" />
        </mxCell>
        <mxCell id="nfO1gDs8qfdZO7nGTnkP-75" value="Display matrix transpose" style="shape=parallelogram;perimeter=parallelogramPerimeter;whiteSpace=wrap;html=1;fixedSize=1;" vertex="1" parent="mvioNwK95yMqdUQ73LqQ-36">
          <mxGeometry x="250" y="2780" width="120" height="60" as="geometry" />
        </mxCell>
        <mxCell id="nfO1gDs8qfdZO7nGTnkP-76" value="&lt;font face=&quot;Sarabun&quot;&gt;End&lt;/font&gt;" style="ellipse;whiteSpace=wrap;html=1;" vertex="1" parent="mvioNwK95yMqdUQ73LqQ-36">
          <mxGeometry x="232" y="3150" width="130" height="30" as="geometry" />
        </mxCell>
        <mxCell id="nfO1gDs8qfdZO7nGTnkP-78" style="edgeStyle=orthogonalEdgeStyle;rounded=0;orthogonalLoop=1;jettySize=auto;html=1;" edge="1" parent="mvioNwK95yMqdUQ73LqQ-36" source="nfO1gDs8qfdZO7nGTnkP-57">
          <mxGeometry relative="1" as="geometry">
            <mxPoint x="302" y="3150" as="targetPoint" />
            <Array as="points">
              <mxPoint x="550" y="2340" />
              <mxPoint x="550" y="3105" />
            </Array>
          </mxGeometry>
        </mxCell>
      </root>
    </mxGraphModel>
  </diagram>
</mxfile>
